# xmcd CD database file
#
# Track frame offsets:
#	150
#	22782
#	41955
#
# Disc length: 858 seconds
#
# Revision: 2
# Processed by: cddbd v1.5.2PL0 Copyright (c) Steve Scherf et al.
# Submitted via: CDex 1.70beta2
#
DISCID=1b035803
DTITLE=SBK (スケボーキング) - EPISODE1
DYEAR=2000
DGENRE=Rock
TTITLE0=EPISODE1 feat. Kj
TTITLE1=EPISODE1 -Paipa mix- feat.Emiko
TTITLE2=EPISODE1 (instrumental)
EXTD=YEAR: 2000
EXTT0=
EXTT1=
EXTT2=
PLAYORDER=
